<svg xmlns="http://www.w3.org/2000/svg" viewBox="0 0 512 512" width="512" height="512"><defs><filter id="s" x="-20%" y="-20%" width="140%" height="150%"><feDropShadow dx="0" dy="12" stdDeviation="14" flood-color="#173227" flood-opacity="0.08"/></filter></defs><rect x="24" y="24" width="464" height="464" rx="110" fill="#F5F1E9" filter="url(#s)"/><circle cx="408" cy="108" r="44" fill="#DDE8E1" opacity=".6"/><rect x="130" y="190" width="252" height="150" rx="18" fill="#1F7A5C" /><line x1="150" y1="170" x2="150" y2="190" stroke="#173227" stroke-width="8" stroke-linecap="round"/><line x1="150" y1="340" x2="150" y2="360" stroke="#173227" stroke-width="8" stroke-linecap="round"/><line x1="180" y1="170" x2="180" y2="190" stroke="#173227" stroke-width="8" stroke-linecap="round"/><line x1="180" y1="340" x2="180" y2="360" stroke="#173227" stroke-width="8" stroke-linecap="round"/><line x1="210" y1="170" x2="210" y2="190" stroke="#173227" stroke-width="8" stroke-linecap="round"/><line x1="210" y1="340" x2="210" y2="360" stroke="#173227" stroke-width="8" stroke-linecap="round"/><line x1="240" y1="170" x2="240" y2="190" stroke="#173227" stroke-width="8" stroke-linecap="round"/><line x1="240" y1="340" x2="240" y2="360" stroke="#173227" stroke-width="8" stroke-linecap="round"/><line x1="270" y1="170" x2="270" y2="190" stroke="#173227" stroke-width="8" stroke-linecap="round"/><line x1="270" y1="340" x2="270" y2="360" stroke="#173227" stroke-width="8" stroke-linecap="round"/><line x1="300" y1="170" x2="300" y2="190" stroke="#173227" stroke-width="8" stroke-linecap="round"/><line x1="300" y1="340" x2="300" y2="360" stroke="#173227" stroke-width="8" stroke-linecap="round"/><line x1="330" y1="170" x2="330" y2="190" stroke="#173227" stroke-width="8" stroke-linecap="round"/><line x1="330" y1="340" x2="330" y2="360" stroke="#173227" stroke-width="8" stroke-linecap="round"/><line x1="360" y1="170" x2="360" y2="190" stroke="#173227" stroke-width="8" stroke-linecap="round"/><line x1="360" y1="340" x2="360" y2="360" stroke="#173227" stroke-width="8" stroke-linecap="round"/><path d="M256 220 L302 265 L256 310 L210 265z" fill="#D99C5C" /><rect x="150" y="210" width="212" height="110" rx="8" fill="#FFFDF9" opacity=".15"/></svg>