<svg xmlns="http://www.w3.org/2000/svg" viewBox="0 0 512 512" width="512" height="512"><defs><filter id="s" x="-20%" y="-20%" width="140%" height="150%"><feDropShadow dx="0" dy="12" stdDeviation="14" flood-color="#173227" flood-opacity="0.08"/></filter></defs><rect x="24" y="24" width="464" height="464" rx="110" fill="#DDE8E1" filter="url(#s)"/><circle cx="408" cy="108" r="44" fill="#DDE8E1" opacity=".6"/><path d="M256 130 L130 240 H160 V360 H352 V240 H382z" fill="#1F7A5C" /><rect x="240" y="262" width="32" height="86" rx="8" fill="#FFFDF9" /><rect x="213" y="289" width="86" height="32" rx="8" fill="#FFFDF9" /><g transform="translate(380 150) scale(0.22)"><path d="M0 60 C-100 -10 -100 -90 -34 -90 C-10 -90 0 -70 0 -70 C0 -70 10 -90 34 -90 C100 -90 100 -10 0 60z" fill="#D99C5C"/></g></svg>