<svg xmlns="http://www.w3.org/2000/svg" viewBox="0 0 512 512" width="512" height="512"><defs><filter id="s" x="-20%" y="-20%" width="140%" height="150%"><feDropShadow dx="0" dy="12" stdDeviation="14" flood-color="#173227" flood-opacity="0.08"/></filter></defs><rect x="24" y="24" width="464" height="464" rx="110" fill="#F5F1E9" filter="url(#s)"/><circle cx="408" cy="108" r="44" fill="#DDE8E1" opacity=".6"/><path d="M190 340 V176 a50 50 0 0 1 100 0 V214" fill="none" stroke="#1F7A5C" stroke-width="30" stroke-linecap="round" stroke-linejoin="round"/><rect x="262" y="210" width="56" height="26" rx="8" fill="#173227" /><path d="M290 258 C309.8 277.8 307.6 299.8 290 299.8 C272.4 299.8 270.2 277.8 290 258z" fill="#D99C5C" /><path d="M290 320 C304.4 334.4 302.8 350.4 290 350.4 C277.2 350.4 275.6 334.4 290 320z" fill="#D99C5C" /><rect x="130" y="360" width="252" height="30" rx="14" fill="#DDE8E1" /></svg>