<svg xmlns="http://www.w3.org/2000/svg" viewBox="0 0 512 512" width="512" height="512"><defs><filter id="s" x="-20%" y="-20%" width="140%" height="150%"><feDropShadow dx="0" dy="12" stdDeviation="14" flood-color="#173227" flood-opacity="0.08"/></filter></defs><rect x="24" y="24" width="464" height="464" rx="110" fill="#F1E7D8" filter="url(#s)"/><circle cx="408" cy="108" r="44" fill="#DDE8E1" opacity=".6"/><path d="M256 220 C210 190 160 190 130 210 V360 C160 340 210 340 256 370z" fill="#1F7A5C" /><path d="M256 220 C302 190 352 190 382 210 V360 C352 340 302 340 256 370z" fill="#1F7A5C" /><line x1="256" y1="224" x2="256" y2="366" stroke="#FFFDF9" stroke-width="8" stroke-linecap="round"/><circle cx="256" cy="150" r="28" fill="#D99C5C" /><line x1="256" y1="100" x2="256" y2="112" stroke="#D99C5C" stroke-width="10" stroke-linecap="round"/><line x1="206" y1="120" x2="216" y2="130" stroke="#D99C5C" stroke-width="10" stroke-linecap="round"/><line x1="306" y1="120" x2="296" y2="130" stroke="#D99C5C" stroke-width="10" stroke-linecap="round"/></svg>